<?xml version="1.0" encoding="utf-8"?>
<svg width="382.29688px" height="163.01796px" viewBox="0 0 382.29688 163.01796" version="1.1" xmlns:xlink="http://www.w3.org/1999/xlink" xmlns="http://www.w3.org/2000/svg">
  <g id="pattern">
    <path d="M0 8.41605C0 3.76799 3.76799 0 8.41605 0C13.0641 0 16.8321 3.76799 16.8321 8.41605C16.8321 13.0641 13.0641 16.8321 8.41605 16.8321C3.76799 16.8321 0 13.0641 0 8.41605Z" id="Oval-3" fill="#FFFFFF" fill-opacity="0.2" fill-rule="evenodd" stroke="none" />
    <path d="M73.0928 8.41605C73.0928 3.76799 76.8608 0 81.5088 0C86.1569 0 89.9249 3.76799 89.9249 8.41605C89.9249 13.0641 86.1569 16.8321 81.5088 16.8321C76.8608 16.8321 73.0928 13.0641 73.0928 8.41605Z" id="Oval-3-Copy" fill="#FFFFFF" fill-opacity="0.2" fill-rule="evenodd" stroke="none" />
    <path d="M146.186 8.41605C146.186 3.76799 149.954 0 154.602 0C159.25 0 163.018 3.76799 163.018 8.41605C163.018 13.0641 159.25 16.8321 154.602 16.8321C149.954 16.8321 146.186 13.0641 146.186 8.41605Z" id="Oval-3-Copy-2" fill="#FFFFFF" fill-opacity="0.2" fill-rule="evenodd" stroke="none" />
    <path d="M219.279 8.41605C219.279 3.76799 223.047 0 227.695 0C232.343 0 236.111 3.76799 236.111 8.41605C236.111 13.0641 232.343 16.8321 227.695 16.8321C223.047 16.8321 219.279 13.0641 219.279 8.41605Z" id="Oval-3-Copy-3" fill="#FFFFFF" fill-opacity="0.2" fill-rule="evenodd" stroke="none" />
    <path d="M292.371 8.41605C292.371 3.76799 296.139 0 300.787 0C305.435 0 309.203 3.76799 309.203 8.41605C309.203 13.0641 305.435 16.8321 300.787 16.8321C296.139 16.8321 292.371 13.0641 292.371 8.41605Z" id="Oval-3-Copy-4" fill="#FFFFFF" fill-opacity="0.2" fill-rule="evenodd" stroke="none" />
    <path d="M365.464 8.41605C365.464 3.76799 369.232 0 373.88 0C378.528 0 382.296 3.76799 382.296 8.41605C382.296 13.0641 378.528 16.8321 373.88 16.8321C369.232 16.8321 365.464 13.0641 365.464 8.41605Z" id="Oval-3-Copy-5" fill="#FFFFFF" fill-opacity="0.2" fill-rule="evenodd" stroke="none" />
    <path d="M0 81.509C0 76.8609 3.76799 73.0929 8.41605 73.0929C13.0641 73.0929 16.8321 76.8609 16.8321 81.509C16.8321 86.157 13.0641 89.925 8.41605 89.925C3.76799 89.925 0 86.157 0 81.509Z" id="Oval-3-Copy-6" fill="#FFFFFF" fill-opacity="0.2" fill-rule="evenodd" stroke="none" />
    <path d="M73.0928 81.509C73.0928 76.8609 76.8608 73.0929 81.5088 73.0929C86.1569 73.0929 89.9249 76.8609 89.9249 81.509C89.9249 86.157 86.1569 89.925 81.5088 89.925C76.8608 89.925 73.0928 86.157 73.0928 81.509Z" id="Oval-3-Copy-7" fill="#FFFFFF" fill-opacity="0.2" fill-rule="evenodd" stroke="none" />
    <path d="M146.186 81.509C146.186 76.8609 149.954 73.0929 154.602 73.0929C159.25 73.0929 163.018 76.8609 163.018 81.509C163.018 86.157 159.25 89.925 154.602 89.925C149.954 89.925 146.186 86.157 146.186 81.509Z" id="Oval-3-Copy-8" fill="#FFFFFF" fill-opacity="0.2" fill-rule="evenodd" stroke="none" />
    <path d="M219.279 81.509C219.279 76.8609 223.047 73.0929 227.695 73.0929C232.343 73.0929 236.111 76.8609 236.111 81.509C236.111 86.157 232.343 89.925 227.695 89.925C223.047 89.925 219.279 86.157 219.279 81.509Z" id="Oval-3-Copy-9" fill="#FFFFFF" fill-opacity="0.2" fill-rule="evenodd" stroke="none" />
    <path d="M292.371 81.509C292.371 76.8609 296.139 73.0929 300.787 73.0929C305.435 73.0929 309.203 76.8609 309.203 81.509C309.203 86.157 305.435 89.925 300.787 89.925C296.139 89.925 292.371 86.157 292.371 81.509Z" id="Oval-3-Copy-10" fill="#FFFFFF" fill-opacity="0.2" fill-rule="evenodd" stroke="none" />
    <path d="M365.464 81.509C365.464 76.8609 369.232 73.0929 373.88 73.0929C378.528 73.0929 382.296 76.8609 382.296 81.509C382.296 86.157 378.528 89.925 373.88 89.925C369.232 89.925 365.464 86.157 365.464 81.509Z" id="Oval-3-Copy-11" fill="#FFFFFF" fill-opacity="0.2" fill-rule="evenodd" stroke="none" />
    <path d="M0 154.602C0 149.954 3.76799 146.186 8.41605 146.186C13.0641 146.186 16.8321 149.954 16.8321 154.602C16.8321 159.25 13.0641 163.018 8.41605 163.018C3.76799 163.018 0 159.25 0 154.602Z" id="Oval-3-Copy-12" fill="#FFFFFF" fill-opacity="0.2" fill-rule="evenodd" stroke="none" />
    <path d="M73.0928 154.602C73.0928 149.954 76.8608 146.186 81.5088 146.186C86.1569 146.186 89.9249 149.954 89.9249 154.602C89.9249 159.25 86.1569 163.018 81.5088 163.018C76.8608 163.018 73.0928 159.25 73.0928 154.602Z" id="Oval-3-Copy-13" fill="#FFFFFF" fill-opacity="0.2" fill-rule="evenodd" stroke="none" />
    <path d="M146.187 154.602C146.187 149.954 149.955 146.186 154.603 146.186C159.251 146.186 163.019 149.954 163.019 154.602C163.019 159.25 159.251 163.018 154.603 163.018C149.955 163.018 146.187 159.25 146.187 154.602Z" id="Oval-3-Copy-14" fill="#FFFFFF" fill-opacity="0.2" fill-rule="evenodd" stroke="none" />
    <path d="M219.279 154.602C219.279 149.954 223.047 146.186 227.695 146.186C232.343 146.186 236.111 149.954 236.111 154.602C236.111 159.25 232.343 163.018 227.695 163.018C223.047 163.018 219.279 159.25 219.279 154.602Z" id="Oval-3-Copy-15" fill="#FFFFFF" fill-opacity="0.2" fill-rule="evenodd" stroke="none" />
    <path d="M292.372 154.602C292.372 149.954 296.14 146.186 300.788 146.186C305.436 146.186 309.204 149.954 309.204 154.602C309.204 159.25 305.436 163.018 300.788 163.018C296.14 163.018 292.372 159.25 292.372 154.602Z" id="Oval-3-Copy-16" fill="#FFFFFF" fill-opacity="0.2" fill-rule="evenodd" stroke="none" />
    <path d="M365.465 154.602C365.465 149.954 369.233 146.186 373.881 146.186C378.529 146.186 382.297 149.954 382.297 154.602C382.297 159.25 378.529 163.018 373.881 163.018C369.233 163.018 365.465 159.25 365.465 154.602Z" id="Oval-3-Copy-17" fill="#FFFFFF" fill-opacity="0.2" fill-rule="evenodd" stroke="none" />
  </g>
</svg>